<svg xmlns="http://www.w3.org/2000/svg" width="2480" height="800" viewBox="0 0 2480 800">
  <path d="M0 0h2480v800H0z"/>
  <g fill="#fff">
    <path d="M357.4 596.6v-28.39h85.2V625h-85.2z"/>
    <path d="M616.76 458.45a452871.7 452871.7 0 00129.5-109.27l13.74-11.6-53.03-25.16a84634.51 84634.51 0 00-54.6-25.88c-1.13-.53-19.07 13.1-62.56 47.51l-60.97 48.25-.67-12c-.37-6.59-.87-41.6-1.11-77.8-.24-36.19-.7-65.92-1.03-66.07-.32-.15-24.8-11.83-54.39-25.97-29.59-14.14-53.93-25.6-54.1-25.46-.23.2-.3 298.5-.06 332.52l.06 9.6 41.15 19.56c22.64 10.76 41.41 19.53 41.73 19.49.32-.04 52.67-44.02 116.34-97.72zM183.21 458.58c-63.7-53.7-121.9-102.87-129.5-109.26L40 337.71l53-25.15c29.2-13.83 53.7-25.48 54.6-25.89 1.1-.52 19.11 13.1 62.51 47.52l61 48.25.71-12c.4-6.59.9-41.6 1.1-77.8.2-36.2.7-65.93 1-66.07l54.4-25.97c29.6-14.14 54-25.6 54.1-25.46.3.2.3 298.49.1 332.52l-.1 9.6-41.1 19.56c-22.7 10.76-41.4 19.53-41.8 19.49-.3-.05-52.6-44.02-116.3-97.73z"/>
  </g>
  <g fill="#fff" aria-label="VARIED VIBE.">
    <path d="M975.23 325l-43.88 100.73-44-100.73H840l69.84 150h43.03l69.72-150zM1129.93 475h45.67l-67.67-150h-41.6l-67.9 150h45.8l9.13-22.6h67.31zm-42.8-104.18l19.48 48h-39.07zM1233.18 475v-57.53h25.72L1296.9 475h50l-42.91-62.24c7.69-2.72 14.9-6.9 19.95-12.34a42.74 42.74 0 0011.3-29.08c0-17.57-9.38-31.28-23.68-39.12-8.65-4.81-19.11-7.22-34.26-7.22h-87.26v150zm0-91.74v-23.85h40.63c5.17 0 7.69.32 9.85 1.15 5.17 1.89 9.02 5.55 9.02 10.78 0 5.44-4.09 9-9.02 10.77-2.28.84-4.68 1.15-9.85 1.15zM1363.24 475h43.27V325h-43.27zM1437.76 325v150h124.77v-34.52h-81.74v-30.44h61.79v-33.58h-61.79V359.1h81.74V325zM1651.72 440.48h-19.6v-81.17h19.6c11.18 0 17.55 1.36 23.44 3.77 15.87 6.48 25.48 20.4 25.48 36.6 0 16.22-9.61 30.45-25.6 36.93-5.77 2.4-12.14 3.87-23.32 3.87zM1651.6 325h-62.5v150h62.5c13.58 0 22.48-1.36 30.9-3.56 35.33-9.41 61.17-37.03 61.17-71.34 0-34.3-25.96-61.92-61.3-71.44-8.3-2.2-17.19-3.66-30.77-3.66zM1944.9 325l-43.88 100.73-44-100.73h-47.36l69.84 150h43.03l69.72-150zM2006.55 475h43.28V325h-43.28zM2123.75 358.16h26.56c5.41 0 7.94.42 10.22 1.25 5.3 1.89 9.38 5.86 9.38 11.2 0 5.54-4.2 9.41-9.38 11.19-2.4.84-4.93 1.05-10.22 1.05h-26.56zm49.16 81.8c-2.52.83-5.29 1.25-10.94 1.25h-38.22v-26.77h38.1c5.9 0 8.66.41 11.06 1.25 5.77 1.99 10.1 6.28 10.1 12.13 0 5.97-4.57 10.15-10.1 12.14zm28.13-46.24c6.5-6.8 9.98-14.33 9.98-23.85 0-15.48-9.26-31.06-26.09-39.01-8.3-3.98-18.03-5.86-36.18-5.86h-67.67v150h83.3c18.63 0 28.6-2.51 36.9-7 14.54-7.85 24.16-21.56 24.16-37.87 0-17.05-10.34-28.98-24.4-36.4zM2247.56 325v150h124.77v-34.52h-81.74v-30.44h61.78v-33.58h-61.78V359.1h81.74V325zM2396.85 475H2440v-37.34h-43.15z"/>
  </g>
</svg>
