<svg version="1.2" xmlns="http://www.w3.org/2000/svg" viewBox="0 0 800 800" width="800" height="800">
	<title>Varied Vibe - Mark (Optimized)-svg</title>
	<style>
		.s0 { fill: #000000 } 
	</style>
	<g id="Layer">
		<path id="Layer" class="s0" d="m357.4 596.6v-28.4h85.2v56.8h-85.2z"/>
		<path id="Layer" fill-rule="evenodd" class="s0" d="m500.4 556.2c-0.3 0-19.1-8.8-41.7-19.5l-41.2-19.6v-9.6c-0.3-34-0.2-332.3 0-332.5 0.2-0.1 24.6 11.3 54.1 25.5 29.6 14.1 54.1 25.8 54.4 25.9 0.4 0.2 0.8 29.9 1.1 66.1 0.2 36.2 0.7 71.2 1.1 77.8l0.6 12 61-48.3c43.5-34.4 61.4-48 62.6-47.5q6.8 3.3 13.6 6.5 6.8 3.2 13.7 6.5 6.8 3.2 13.6 6.4 6.8 3.3 13.7 6.5l53 25.2-13.7 11.6q-16.2 13.6-32.4 27.3-16.2 13.7-32.4 27.3-16.2 13.7-32.4 27.3-16.1 13.7-32.3 27.3c-63.7 53.7-116.1 97.7-116.4 97.8zm-317.2-97.6c-63.6-53.7-121.9-102.9-129.5-109.3l-13.7-11.6 53-25.1 54.6-25.9c1.2-0.6 19.1 13.1 62.6 47.5l61 48.2 0.6-12c0.4-6.6 0.9-41.6 1.1-77.8 0.3-36.2 0.7-65.9 1.1-66l54.4-26c29.5-14.1 53.9-25.6 54.1-25.5 0.2 0.2 0.3 298.5 0 332.6v9.6l-41.2 19.5c-22.6 10.8-41.4 19.5-41.7 19.5-0.3 0-52.7-44-116.4-97.7z"/>
	</g>
</svg>