<svg xmlns="http://www.w3.org/2000/svg" xmlns:xlink="http://www.w3.org/1999/xlink" version="1.1" width="18750" height="12000" viewBox="0 0 18750 12000"><g stroke-width=".3" aria-label="VIBE." fill="#000000">    <path d="M4527 5846l-634-1291H2773l1295 2859h849l1352-2859H5149zM2541 3991h3960v4018H2541z"></path>    <path d="M7746 4555h-951v2859h951zm-1313-564h1697v4018H6433z"></path>    <path d="M9997 5912q102 0 215-50t204-139q96-88 153-211 62-123 62-273 0-142-74-265t-220-215-379-146-543-54h-29 57-1007v2859h1375q277 0 486-62 210-65 345-173 142-111 210-253 73-142 73-300 0-108-51-234t-164-235q-107-107-283-176-175-73-430-73zM8080 3991h3128v4018H8080z"></path>    <path d="M14071 4555h-2580v2859h2580v-646h-1630v-461h1200v-645h-1200v-461h1630zm-2942-564h3309v4018h-3309z"></path>    <path d="M15626 7414v-530h-775v530zm-1295-3423h1878v4018h-1878z"></path>  </g></svg>
