<?xml version="1.0" standalone="no"?>
<!DOCTYPE svg PUBLIC "-//W3C//DTD SVG 20010904//EN"
 "http://www.w3.org/TR/2001/REC-SVG-20010904/DTD/svg10.dtd">
<svg version="1.0" xmlns="http://www.w3.org/2000/svg"
 width="4000.000000pt" height="4000.000000pt" viewBox="0 0 4000.000000 4000.000000"
 preserveAspectRatio="xMidYMid meet">
<metadata>
Created by potrace 1.14, written by Peter Selinger 2001-2017
</metadata>
<g transform="translate(0.000000,4000.000000) scale(0.100000,-0.100000)"
fill="#000000" stroke="none">
<path d="M20879 31243 c-8 -53 -14 -15218 -6 -16563 l3 -535 295 -140 c162
-77 359 -171 439 -209 80 -39 195 -93 255 -121 107 -51 180 -86 435 -207 154
-74 238 -114 271 -127 13 -6 31 -15 39 -20 8 -5 56 -28 105 -51 187 -89 464
-220 580 -275 66 -31 185 -88 265 -125 80 -37 212 -100 293 -139 82 -39 151
-71 153 -71 2 0 54 -24 116 -54 258 -123 370 -176 374 -176 3 0 48 -21 102
-46 170 -80 195 -92 307 -143 72 -32 115 -46 125 -41 8 5 78 61 155 125 147
122 148 123 235 195 30 25 62 52 70 60 9 8 36 31 60 50 24 19 60 49 80 66 56
49 580 488 679 569 13 11 43 36 65 55 23 20 82 69 131 110 50 41 101 84 115
96 50 43 356 300 410 344 30 25 57 47 60 50 7 8 169 145 385 325 105 88 201
169 215 181 47 40 365 307 420 352 30 25 60 50 65 56 6 6 30 27 55 46 25 19
50 40 55 46 6 6 37 33 70 60 33 27 105 87 160 134 56 47 125 105 155 130 30
25 73 61 95 80 22 20 94 81 160 135 66 55 122 103 125 106 3 3 75 64 160 135
85 71 166 139 180 151 104 88 308 260 336 283 11 9 78 65 149 125 159 136 443
374 469 395 10 8 26 22 35 30 9 9 41 36 71 60 30 25 57 48 60 51 3 3 77 67
165 140 306 255 340 284 350 295 6 5 51 44 100 85 50 40 92 76 95 79 3 3 45
39 95 80 49 41 101 85 115 97 21 18 134 113 430 363 101 85 248 209 324 273
45 38 90 76 101 85 52 43 211 177 215 182 5 5 97 83 150 127 60 50 187 157
210 176 14 12 52 44 85 72 33 27 78 65 101 85 47 41 69 60 189 160 50 41 92
77 95 80 3 3 30 25 60 50 30 25 61 51 69 58 7 7 52 46 100 85 47 40 88 74 91
77 3 3 75 64 160 135 85 72 202 170 260 220 58 49 112 95 120 101 27 22 174
146 229 193 30 25 73 62 96 81 119 100 155 131 229 193 45 38 90 76 101 86 99
82 276 231 300 252 17 15 134 114 260 220 335 282 358 300 385 325 14 12 117
100 230 194 113 94 228 191 255 215 28 24 84 71 125 105 41 35 98 82 125 105
28 24 111 94 185 157 74 62 212 178 305 257 94 79 193 162 220 186 28 23 145
122 260 220 116 97 226 191 245 207 19 16 55 46 79 66 25 21 75 63 113 96 l69
58 -48 23 c-127 59 -197 92 -303 142 -112 54 -584 278 -785 373 -92 43 -137
65 -390 185 -177 84 -311 148 -400 190 -212 100 -258 122 -413 196 -90 44
-165 79 -167 79 -2 0 -74 34 -161 76 -88 42 -190 91 -229 109 -38 18 -119 57
-180 85 -60 29 -148 70 -195 92 -47 22 -132 63 -190 90 -58 28 -145 70 -195
93 -49 23 -135 64 -190 90 -168 80 -306 145 -390 185 -44 21 -129 61 -190 90
-60 29 -146 69 -190 90 -111 52 -249 117 -390 185 -66 31 -149 70 -185 87 -36
16 -91 43 -123 59 -32 16 -68 29 -80 28 -12 0 -54 -21 -93 -47 -149 -98 -219
-146 -232 -159 -8 -7 -35 -27 -60 -45 -40 -27 -377 -279 -422 -315 -8 -7 -125
-97 -260 -200 -135 -104 -274 -211 -310 -239 -220 -171 -459 -358 -485 -378
-28 -23 -215 -170 -280 -220 -72 -56 -815 -643 -861 -680 -28 -23 -96 -76
-150 -118 -55 -43 -110 -86 -124 -97 -22 -18 -152 -120 -233 -184 -15 -12 -33
-27 -40 -33 -7 -6 -34 -27 -62 -48 -27 -21 -52 -41 -55 -45 -3 -3 -34 -28 -70
-56 -67 -51 -450 -353 -485 -383 -11 -9 -72 -57 -135 -106 -63 -50 -129 -101
-146 -115 -38 -31 -56 -46 -114 -91 -25 -19 -47 -37 -50 -40 -3 -3 -57 -46
-120 -95 -63 -49 -124 -97 -135 -106 -11 -10 -112 -90 -225 -179 -113 -89
-221 -174 -240 -190 -114 -91 -361 -287 -396 -314 -23 -17 -117 -91 -209 -164
-92 -73 -169 -131 -171 -130 -2 2 -6 60 -9 128 -3 69 -8 150 -10 180 -29 318
-50 1481 -70 3925 -13 1558 -20 2226 -30 2785 -7 382 -16 713 -20 735 -2 11
-4 26 -4 33 -1 6 -6 12 -12 12 -6 0 -54 21 -107 46 -54 26 -133 64 -177 84
-44 21 -145 69 -225 108 -80 38 -188 90 -240 115 -144 68 -311 148 -445 212
-66 32 -160 77 -210 100 -49 24 -153 73 -230 110 -77 37 -180 86 -230 110 -49
23 -153 73 -230 110 -77 37 -182 87 -232 111 -51 24 -137 65 -190 90 -54 26
-138 66 -188 89 -49 24 -170 81 -269 129 -98 47 -180 86 -181 86 -1 0 -85 40
-186 88 -101 49 -215 104 -254 122 -38 18 -144 68 -233 111 -90 44 -165 79
-167 79 -2 0 -68 31 -147 69 -78 37 -170 81 -203 96 -33 16 -129 61 -214 102
-84 40 -155 73 -157 73 -2 0 -69 32 -150 70 -80 39 -148 70 -149 70 -2 0 -50
22 -107 49 -56 27 -134 63 -173 80 -38 17 -78 36 -87 41 -21 12 -28 12 -29 3z"/>
<path d="M18990 31186 c-63 -29 -155 -72 -205 -96 -49 -23 -115 -53 -145 -67
-30 -14 -115 -54 -189 -89 -73 -35 -134 -64 -136 -64 -2 0 -65 -30 -141 -66
-77 -36 -166 -79 -199 -94 -33 -15 -114 -54 -180 -85 -66 -31 -154 -73 -195
-92 -41 -20 -131 -63 -200 -95 -69 -33 -156 -75 -195 -93 -38 -18 -126 -60
-195 -92 -69 -33 -165 -79 -215 -103 -49 -23 -173 -83 -274 -131 -101 -49
-185 -89 -187 -89 -2 0 -96 -45 -209 -100 -113 -55 -208 -100 -209 -100 -2 0
-97 -45 -211 -100 -114 -55 -226 -109 -250 -120 -24 -11 -132 -62 -240 -115
-109 -52 -199 -95 -201 -95 -1 0 -92 -43 -201 -96 -109 -53 -223 -107 -253
-121 -30 -14 -134 -63 -230 -110 -96 -46 -200 -95 -230 -110 -30 -14 -134 -65
-230 -112 -154 -76 -175 -89 -176 -111 -16 -261 -33 -1492 -49 -3495 -17
-2089 -39 -3491 -60 -3780 -2 -33 -7 -118 -11 -190 -3 -71 -7 -146 -9 -165 -1
-19 -3 -54 -4 -77 0 -24 -5 -43 -10 -43 -7 0 -208 156 -354 274 -15 13 -73 58
-128 102 -56 43 -215 169 -353 279 -139 110 -270 214 -291 230 -21 17 -97 77
-170 135 -73 58 -150 119 -171 135 -146 114 -684 540 -705 558 -14 12 -72 58
-129 102 -56 44 -162 127 -234 185 -72 58 -143 114 -158 125 -27 20 -550 433
-644 509 -28 23 -68 55 -89 71 -129 101 -535 421 -560 441 -16 12 -129 101
-250 196 -121 95 -307 241 -413 323 -107 83 -240 186 -297 230 -56 44 -144
112 -195 150 -51 39 -124 95 -164 126 -285 226 -732 546 -818 588 l-43 20 -90
-43 c-49 -24 -137 -66 -195 -94 -58 -27 -150 -71 -205 -97 -55 -26 -136 -64
-180 -85 -44 -21 -132 -62 -195 -92 -63 -30 -155 -74 -205 -98 -228 -108 -447
-211 -575 -272 -58 -28 -141 -67 -185 -88 -44 -21 -129 -61 -190 -90 -60 -29
-195 -93 -300 -142 -104 -50 -237 -113 -295 -140 -58 -28 -136 -65 -175 -83
-38 -18 -124 -59 -190 -90 -66 -32 -160 -77 -210 -100 -49 -23 -139 -66 -200
-95 -134 -63 -255 -121 -354 -167 -40 -19 -126 -59 -190 -90 -64 -30 -158 -75
-210 -100 -51 -24 -146 -69 -210 -100 -64 -31 -152 -73 -196 -93 -108 -51
-250 -118 -365 -173 -266 -127 -340 -162 -398 -188 -35 -16 -62 -33 -60 -38 3
-7 192 -171 343 -295 33 -28 67 -57 76 -65 9 -9 38 -34 64 -56 27 -22 110 -92
185 -155 75 -63 158 -133 185 -155 26 -22 58 -49 69 -60 12 -11 53 -46 91 -77
39 -31 79 -65 90 -75 11 -10 74 -63 140 -118 140 -117 173 -145 195 -165 9 -8
37 -32 63 -53 25 -21 52 -43 59 -50 7 -7 36 -30 63 -52 28 -22 55 -45 60 -51
6 -6 37 -33 70 -60 33 -27 62 -51 65 -54 3 -3 61 -53 130 -110 138 -116 154
-129 190 -161 14 -11 45 -38 70 -58 25 -20 58 -48 75 -63 16 -14 125 -106 240
-203 116 -97 234 -197 263 -222 29 -25 65 -55 80 -67 15 -11 29 -23 32 -26 10
-10 86 -75 135 -115 27 -22 69 -58 95 -80 25 -22 156 -132 290 -245 134 -113
307 -259 385 -325 77 -66 163 -138 190 -160 65 -53 119 -99 125 -105 3 -3 120
-102 260 -220 140 -118 260 -219 266 -225 6 -5 30 -26 54 -45 24 -19 48 -40
54 -45 6 -6 54 -46 106 -90 52 -44 106 -90 120 -102 29 -25 354 -299 418 -352
49 -40 51 -42 107 -91 23 -19 63 -54 90 -76 66 -55 333 -280 365 -307 14 -12
68 -58 120 -102 52 -44 97 -82 100 -85 3 -3 28 -24 55 -45 28 -22 52 -43 55
-46 3 -3 34 -30 70 -60 36 -29 76 -63 90 -75 23 -20 245 -208 364 -308 27 -22
54 -46 60 -51 6 -6 81 -68 166 -139 85 -71 165 -139 177 -150 12 -12 28 -25
35 -31 19 -14 174 -144 298 -249 58 -49 127 -107 154 -130 27 -22 54 -45 60
-51 12 -11 118 -99 149 -125 10 -8 31 -25 45 -38 15 -13 47 -40 72 -60 25 -20
47 -40 50 -43 3 -3 48 -41 100 -85 97 -80 134 -111 154 -129 6 -5 38 -32 71
-60 33 -27 62 -52 65 -55 3 -3 45 -39 95 -80 49 -41 122 -102 160 -135 164
-139 187 -159 213 -179 15 -11 29 -23 32 -26 3 -3 61 -53 130 -110 69 -58 127
-107 130 -110 3 -3 61 -53 130 -110 69 -58 136 -114 150 -126 33 -28 105 -89
165 -139 66 -54 146 -122 170 -144 11 -9 76 -64 145 -121 69 -57 172 -144 230
-193 58 -49 125 -106 150 -127 25 -20 95 -79 155 -130 61 -51 130 -109 155
-130 161 -135 403 -339 448 -378 29 -25 65 -54 80 -66 15 -11 29 -23 32 -26 3
-3 48 -41 100 -85 52 -44 106 -90 120 -101 14 -12 115 -97 225 -189 110 -91
210 -175 223 -186 19 -17 377 -316 512 -429 25 -21 93 -77 151 -126 58 -49
124 -104 147 -122 23 -19 51 -43 64 -54 13 -11 41 -34 62 -51 22 -18 56 -47
76 -64 21 -18 43 -33 49 -33 14 0 94 33 216 90 50 23 144 67 210 97 126 58
213 99 355 165 47 22 121 57 165 78 44 21 121 57 170 80 50 23 117 55 150 70
33 15 123 58 200 95 77 37 165 78 195 92 30 14 116 55 190 90 74 36 160 77
190 90 30 14 120 57 200 95 80 39 177 85 215 103 99 46 240 113 380 180 172
83 292 139 620 295 50 24 131 62 180 85 83 40 216 103 424 202 l85 41 3 533
c4 627 4 15045 0 15951 -1 404 -5 618 -12 617 -5 0 -62 -24 -125 -53z"/>
<path d="M17870 10170 l0 -1420 2130 0 2130 0 0 1420 0 1420 -2130 0 -2130 0
0 -1420z"/>
</g>
</svg>
