<svg data-name="Layer 1" width="122.8" height="122.8" xmlns="http://www.w3.org/2000/svg"><path d="M7.051 9.629H115.85a7.071 8.233 0 0 1 7 8.21v87.053a7.001 8.151 0 0 1-1.22 4.658 2.78 3.237 0 0 1-.66 1.164 2.62 3.05 0 0 1-.66.536 7.001 8.151 0 0 1-4.51 1.921H7.05a7.071 8.233 0 0 1-7-8.151V17.838A7.071 8.233 0 0 1 7.051 9.63Zm-.3 91.804L43.537 56.93 6.751 20.738Zm42.327-38.95L9.772 106.802h103.016l-37.556-44.32L64.23 73.208a2.7 3.144 0 0 1-3.45 0zm31.605-5.636 35.466 44.947V20.342ZM10.212 15.929 62.4 65.173l49.888-49.244Z" style="stroke-width:1.07918"/></svg>