<svg width="122.8" height="122.8" xml:space="preserve" xmlns="http://www.w3.org/2000/svg"><path fill-rule="evenodd" clip-rule="evenodd" d="M10.361 9.629H112.44c5.699 0 10.36 4.662 10.36 10.36 0 5.698-4.661 10.361-10.36 10.361H10.36C4.663 30.35 0 25.688 0 19.99c0-5.7 4.663-10.36 10.361-10.36Zm0 82.822H112.44c5.699 0 10.36 4.662 10.36 10.36 0 5.698-4.661 10.36-10.36 10.36H10.36c-5.697 0-10.36-4.661-10.36-10.36 0-5.698 4.663-10.36 10.361-10.36Zm0-41.41H112.44c5.699 0 10.36 4.661 10.36 10.36 0 5.698-4.661 10.36-10.36 10.36H10.36C4.663 71.762 0 67.1 0 61.402c0-5.699 4.663-10.36 10.361-10.36Z"/></svg>