<svg xmlns="http://www.w3.org/2000/svg" width="122.533" height="122.879" xml:space="preserve"><path d="M59.815 5.136c-1.235 0-2.365.211-3.384.633-1.026.425-1.97 1.068-2.827 1.932l-.004.005.005.005c-.887.888-1.543 1.831-1.964 2.829-.417.99-.627 2.089-.627 3.298 0 1.228.213 2.349.636 3.364.424 1.018 1.077 1.967 1.956 2.846.042.042.083.086.122.13.828.807 1.734 1.416 2.713 1.824 1.02.425 2.146.638 3.376.638 1.235 0 2.358-.213 3.37-.637 1.014-.424 1.946-1.07 2.797-1.934.854-.866 1.489-1.814 1.909-2.842.418-1.025.626-2.155.626-3.389 0-1.214-.205-2.32-.616-3.318-.417-1.011-1.056-1.953-1.919-2.829-.849-.862-1.78-1.503-2.797-1.926-1.01-.419-2.133-.629-3.372-.629zm-5.35-4.102C56.13.344 57.917 0 59.815 0c1.905 0 3.684.342 5.337 1.03 1.646.685 3.14 1.708 4.482 3.069 1.327 1.348 2.327 2.838 3.001 4.474.68 1.648 1.019 3.402 1.019 5.264 0 1.894-.335 3.665-1.008 5.314-.672 1.647-1.675 3.15-3.012 4.507-1.34 1.36-2.833 2.387-4.482 3.078-1.65.692-3.429 1.039-5.337 1.039-1.898 0-3.682-.348-5.342-1.04-1.592-.663-3.045-1.639-4.354-2.923a2.31 2.31 0 0 1-.146-.135c-1.347-1.347-2.368-2.851-3.06-4.511-.69-1.658-1.037-3.435-1.037-5.331 0-1.867.351-3.629 1.049-5.284.695-1.647 1.712-3.138 3.048-4.474l.005.005c1.344-1.35 2.843-2.366 4.487-3.048zM24.407 21.61c-.934 0-1.788.162-2.562.485-.79.33-1.524.832-2.203 1.505-.669.669-1.169 1.401-1.495 2.196-.323.785-.485 1.672-.485 2.66 0 .979.163 1.861.486 2.646.326.792.825 1.523 1.494 2.192.678.673 1.413 1.175 2.203 1.505.774.323 1.627.485 2.562.485.979 0 1.862-.163 2.647-.486.792-.326 1.523-.825 2.192-1.494l.01-.01c.674-.667 1.176-1.401 1.506-2.197.327-.788.49-1.669.49-2.641 0-.988-.163-1.876-.489-2.665-.326-.789-.829-1.52-1.508-2.192l-.01-.01c-.669-.669-1.4-1.167-2.192-1.494-.783-.322-1.667-.485-2.646-.485zm-4.528-4.25a11.643 11.643 0 0 1 4.528-.887c1.627 0 3.16.297 4.593.888 1.425.587 2.714 1.457 3.866 2.605l.002.002c1.161 1.149 2.038 2.442 2.631 3.877.594 1.436.891 2.973.891 4.611 0 1.637-.297 3.174-.892 4.607-.589 1.42-1.466 2.709-2.63 3.862-1.152 1.15-2.442 2.021-3.868 2.608a11.95 11.95 0 0 1-4.593.887c-1.604 0-3.114-.296-4.528-.887-1.403-.586-2.687-1.456-3.848-2.608-1.155-1.154-2.029-2.448-2.618-3.878a11.93 11.93 0 0 1-.888-4.592c0-1.635.297-3.171.887-4.606.589-1.432 1.462-2.726 2.619-3.882 1.161-1.151 2.445-2.021 3.848-2.607zM10.01 58.65c-.685 0-1.3.114-1.841.342-.556.234-1.079.598-1.566 1.092l-.03.03c-.494.488-.858 1.012-1.093 1.568-.229.541-.343 1.155-.343 1.84s.114 1.299.342 1.841c.237.563.605 1.095 1.104 1.594l.01.01a4.91 4.91 0 0 0 1.571 1.08 4.759 4.759 0 0 0 1.846.349c.712 0 1.349-.117 1.908-.349a4.623 4.623 0 0 0 1.54-1.061c.491-.502.853-1.037 1.085-1.604.226-.55.339-1.171.339-1.86s-.113-1.312-.34-1.86c-.23-.56-.588-1.086-1.074-1.578l-.02-.021h-.001a4.554 4.554 0 0 0-1.524-1.062c-.563-.233-1.201-.351-1.913-.351zm-3.828-4.373a9.766 9.766 0 0 1 3.828-.764c1.381 0 2.676.251 3.88.754s2.29 1.251 3.25 2.245a9.974 9.974 0 0 1 2.138 3.202c.494 1.2.741 2.47.741 3.807a9.942 9.942 0 0 1-.74 3.807 10.083 10.083 0 0 1-2.148 3.229c-.961.983-2.044 1.725-3.245 2.223-1.204.5-2.498.751-3.875.751a9.79 9.79 0 0 1-3.813-.751c-1.179-.493-2.256-1.225-3.224-2.19l-.002-.003-.005-.005-.004-.005c-.967-.969-1.7-2.046-2.198-3.229A9.728 9.728 0 0 1 0 63.522a9.76 9.76 0 0 1 .764-3.827 9.986 9.986 0 0 1 2.198-3.215 9.98 9.98 0 0 1 3.22-2.203zm18.225 39.942c-.603 0-1.154.105-1.653.314a4.492 4.492 0 0 0-1.431.99 2.786 2.786 0 0 1-.113.106c-.398.421-.694.86-.888 1.319-.202.481-.304 1.033-.304 1.657 0 .644.104 1.215.313 1.716.209.5.529.961.961 1.382l.02.02c.446.438.919.761 1.417.966.494.204 1.054.306 1.677.306.653 0 1.241-.104 1.762-.315a4.4 4.4 0 0 0 1.442-.966l.01-.01c.432-.421.752-.882.961-1.382.208-.5.313-1.072.313-1.716 0-.608-.104-1.16-.313-1.657a2.699 2.699 0 0 1-.058-.149c-.208-.438-.52-.862-.934-1.276-.452-.453-.932-.783-1.436-.99-.507-.21-1.09-.315-1.746-.315zm-3.639-4.421a9.31 9.31 0 0 1 3.639-.716 9.62 9.62 0 0 1 3.694.716 9.506 9.506 0 0 1 3.121 2.094 9.574 9.574 0 0 1 1.982 2.839c.041.075.078.152.112.233a9.304 9.304 0 0 1 .714 3.643 9.48 9.48 0 0 1-.714 3.683c-.477 1.143-1.186 2.171-2.125 3.087-.928.913-1.961 1.6-3.097 2.059a9.73 9.73 0 0 1-3.688.697 9.406 9.406 0 0 1-3.623-.707 9.523 9.523 0 0 1-3.054-2.041l-.008-.008c-.939-.916-1.647-1.944-2.124-3.087-.477-1.143-.715-2.369-.715-3.683a9.3 9.3 0 0 1 .725-3.643 9.491 9.491 0 0 1 1.938-2.913 2.72 2.72 0 0 1 .146-.159c.923-.922 1.95-1.621 3.077-2.094zm38.938 18.183c-.682 0-1.292.113-1.83.341-.559.235-1.088.604-1.587 1.104l-.01.01a4.973 4.973 0 0 0-1.093 1.594 1.991 1.991 0 0 1-.072.155 4.819 4.819 0 0 0-.28 1.687c0 .682.114 1.291.341 1.83.23.547.602 1.076 1.114 1.587.511.512 1.041.883 1.587 1.113.539.228 1.148.341 1.83.341 1.378 0 2.537-.475 3.465-1.424.492-.504.855-1.036 1.086-1.597.226-.547.339-1.164.339-1.851 0-.69-.113-1.312-.339-1.862-.232-.565-.595-1.101-1.086-1.604a4.672 4.672 0 0 0-1.551-1.072c-.563-.234-1.201-.352-1.914-.352zm-3.816-4.374a9.703 9.703 0 0 1 3.816-.763c1.38 0 2.675.251 3.881.753 1.202.501 2.288 1.246 3.256 2.236a10.067 10.067 0 0 1 2.148 3.229c.494 1.203.741 2.473.741 3.809s-.247 2.601-.74 3.796c-.487 1.183-1.204 2.256-2.149 3.224-1.947 1.992-4.334 2.988-7.137 2.988a9.712 9.712 0 0 1-3.816-.762 10.086 10.086 0 0 1-3.232-2.197 10.1 10.1 0 0 1-2.198-3.232 9.717 9.717 0 0 1-.763-3.816c0-1.254.223-2.452.668-3.593.024-.079.053-.157.085-.235.492-1.17 1.227-2.246 2.204-3.227l.003-.003.005-.005.005-.005c.969-.966 2.042-1.699 3.223-2.197zM94.304 93.37c-1.374 0-2.52.475-3.447 1.424l-.028.028a4.908 4.908 0 0 0-1.057 1.56c-.227.55-.34 1.171-.34 1.859 0 .73.113 1.372.339 1.924.221.54.576 1.055 1.066 1.545.489.49 1.004.846 1.544 1.066.552.226 1.192.339 1.923.339.689 0 1.311-.114 1.861-.34.566-.232 1.102-.595 1.604-1.085.481-.472.84-.986 1.074-1.546.233-.56.351-1.193.351-1.903 0-1.318-.481-2.465-1.444-3.417l-.005-.005-.005.005c-.498-.498-1.03-.866-1.594-1.103a4.724 4.724 0 0 0-1.842-.351zm-7.119-2.147c1.948-1.993 4.313-2.989 7.119-2.989 1.356 0 2.633.251 3.828.753 1.186.498 2.267 1.233 3.238 2.206l-.004.005c1.976 1.957 2.964 4.32 2.964 7.044 0 1.381-.251 2.67-.753 3.87-.501 1.2-1.247 2.283-2.236 3.25a10.08 10.08 0 0 1-3.229 2.149 9.945 9.945 0 0 1-3.808.741c-1.359 0-2.642-.248-3.85-.74a9.816 9.816 0 0 1-3.249-2.17 9.793 9.793 0 0 1-2.17-3.251 10.085 10.085 0 0 1-.74-3.85c0-1.336.247-2.606.741-3.806a9.936 9.936 0 0 1 2.14-3.203l.009-.009zm22.112-34.622c-1.149 0-2.194.193-3.132.582-.928.384-1.799.981-2.61 1.793-.813.812-1.41 1.683-1.794 2.61-.388.938-.581 1.983-.581 3.132 0 1.134.193 2.172.582 3.108s.985 1.81 1.793 2.617c.812.812 1.683 1.409 2.61 1.793.938.388 1.982.581 3.132.581 1.134 0 2.171-.193 3.108-.582.936-.388 1.81-.985 2.616-1.792.808-.808 1.404-1.681 1.792-2.617.389-.937.583-1.975.583-3.108 0-1.148-.193-2.193-.582-3.132-.384-.927-.981-1.798-1.793-2.61-.807-.807-1.681-1.404-2.616-1.792-.937-.389-1.974-.583-3.108-.583zm-5.078-4.154c1.586-.656 3.279-.983 5.078-.983 1.798 0 3.491.327 5.075.984 1.574.653 3.003 1.618 4.281 2.896 1.274 1.275 2.239 2.708 2.896 4.296.656 1.586.983 3.28.983 5.078s-.327 3.492-.984 5.075c-.652 1.574-1.617 3.003-2.896 4.281s-2.707 2.243-4.281 2.896c-1.584.656-3.277.983-5.075.983-1.799 0-3.492-.327-5.078-.983-1.588-.656-3.021-1.621-4.296-2.896-1.278-1.278-2.243-2.707-2.896-4.281-.657-1.583-.984-3.277-.984-5.075s.327-3.491.983-5.078c.657-1.588 1.622-3.021 2.896-4.296 1.276-1.275 2.71-2.24 4.298-2.897zM94.91 14.762c4.284 0 7.968 1.521 11.012 4.564 1.512 1.512 2.652 3.206 3.426 5.086.771 1.877 1.155 3.89 1.155 6.044 0 2.133-.385 4.131-1.158 5.991-.766 1.843-1.908 3.522-3.429 5.033l.006.005c-1.505 1.505-3.187 2.642-5.039 3.41-1.857.77-3.851 1.155-5.973 1.155-4.304 0-7.986-1.521-11.029-4.564-1.507-1.507-2.649-3.192-3.423-5.051-.771-1.856-1.159-3.849-1.159-5.978 0-2.156.389-4.169 1.162-6.044.771-1.868 1.912-3.558 3.42-5.076l.005-.005-.005-.005c1.501-1.501 3.186-2.638 5.052-3.41 1.86-.771 3.853-1.155 5.977-1.155zm7.38 8.196c-2.04-2.04-4.509-3.06-7.38-3.06-1.474 0-2.818.251-4.031.753-1.204.498-2.327 1.267-3.366 2.307l-.006-.005c-1.031 1.039-1.803 2.174-2.311 3.405-.506 1.227-.761 2.592-.761 4.098 0 1.461.254 2.799.758 4.012.506 1.218 1.28 2.348 2.319 3.386 2.039 2.04 4.509 3.06 7.397 3.06 1.458 0 2.795-.251 4.007-.753 1.213-.503 2.338-1.272 3.373-2.306l.005.005.005-.005c1.032-1.025 1.802-2.15 2.311-3.373.504-1.215.757-2.558.757-4.024 0-1.508-.251-2.873-.755-4.098-.502-1.222-1.275-2.355-2.322-3.402z"/></svg>