<svg xmlns="http://www.w3.org/2000/svg" width="122.88" height="122.267" xml:space="preserve"><path d="M33.822 50.291c4.137 7.442 8.898 14.604 15.074 21.133 6.204 6.56 13.886 12.538 23.875 17.606l.01.005.002-.005a2.466 2.466 0 0 0 2.072.118c.944-.353 1.927-1.137 2.883-2.086.729-.726 1.643-1.924 2.631-3.223 3.846-5.054 8.601-11.301 15.314-8.193.142.065.276.141.402.226l22.373 12.852c.08.046.157.095.23.147 2.966 2.036 4.177 5.172 4.19 8.683.014 3.621-1.329 7.674-3.274 11.101-2.565 4.517-6.387 7.502-10.761 9.525-4.17 1.928-8.798 2.954-13.267 3.608-6.989 1.025-13.578.374-20.288-1.692-6.55-2.017-13.176-5.385-20.4-9.86l-.526-.326c-3.326-2.06-6.906-4.276-10.389-6.904-12.865-9.71-25.966-23.723-34.461-39.102C2.361 50.958-1.552 36.995.581 23.681 1.75 16.375 4.901 9.743 10.333 5.35 15.095 1.497 21.521-.59 29.781.147a2.908 2.908 0 0 1 2.255 1.419l.006-.003 14.324 24.27c2.11 2.718 2.344 5.415 1.203 8.096-.943 2.218-2.892 4.251-5.476 6.168-.786.65-1.708 1.325-2.659 2.021-3.198 2.341-6.856 5.018-5.612 8.173zM44.67 75.422C38.066 68.44 33.035 60.88 28.695 53.065a2.872 2.872 0 0 1-.202-.39c-3.174-7.459 2.52-11.625 7.493-15.262.845-.618 1.663-1.217 2.401-1.829l.002.003c.043-.036.088-.071.135-.105 1.843-1.354 3.171-2.647 3.678-3.837.289-.679.182-1.426-.466-2.265a2.968 2.968 0 0 1-.303-.423L27.795 5.852c-5.869-.241-10.419 1.321-13.784 4.044-4.239 3.429-6.723 8.759-7.674 14.699-1.905 11.894 1.716 24.594 8.292 36.5 8.078 14.623 20.575 27.977 32.864 37.25 3.379 2.55 6.776 4.653 9.932 6.607l.526.326c6.818 4.223 13.017 7.386 19.052 9.244 5.876 1.809 11.634 2.38 17.729 1.486 4.009-.587 8.113-1.485 11.668-3.129 3.351-1.55 6.248-3.785 8.134-7.104 1.496-2.637 2.53-5.653 2.521-8.222-.006-1.63-.472-3.029-1.605-3.844L93.2 80.93c-2.461-1.081-5.629 3.081-8.193 6.45-1.104 1.452-2.125 2.792-3.156 3.817-1.477 1.466-3.118 2.723-4.962 3.411-2.136.799-4.395.834-6.755-.37l.002-.004C59.522 88.849 51.323 82.457 44.67 75.422z"/></svg>