<svg xmlns="http://www.w3.org/2000/svg" viewBox="0 0 80.74 122.88" style="enable-background:new 0 0 80.74 122.88" xml:space="preserve"><path d="M49.14 122.88h-23.3c-1.57 0-3-.64-4.03-1.67a5.692 5.692 0 0 1-1.67-4.03V98.47c0-1.57.64-3 1.67-4.03a5.692 5.692 0 0 1 4.03-1.67h23.3c1.57 0 3 .64 4.03 1.67a5.692 5.692 0 0 1 1.67 4.03v18.71c0 1.57-.64 3-1.67 4.03a5.692 5.692 0 0 1-4.03 1.67zM20.1 78.75c.02-1.73.12-3.35.29-4.83.17-1.55.43-3.04.77-4.46.38-1.57.84-3.01 1.4-4.3.58-1.36 1.26-2.59 2.04-3.69l.05-.07.13-.17.04-.05c.69-.95 1.47-1.91 2.36-2.87.92-.99 1.94-2 3.06-3.01 1.06-.96 2.3-1.99 3.71-3.09 1.32-1.04 2.79-2.12 4.39-3.24.07-.06.14-.12.22-.17.08-.06.17-.11.26-.15.52-.34 1.03-.7 1.53-1.08.51-.4 1-.83 1.47-1.28.45-.44.87-.91 1.26-1.39.38-.47.71-.94 1.01-1.41.02-.04.04-.07.07-.11.3-.48.56-.96.77-1.46.21-.48.39-1.02.55-1.62.15-.56.27-1.16.34-1.8.08-.64.12-1.31.12-2.02s-.04-1.34-.12-1.91c-.08-.57-.2-1.07-.35-1.52-.14-.41-.3-.79-.5-1.13-.19-.34-.42-.65-.68-.94l-.05-.05-.07-.08c-.2-.2-.41-.37-.63-.51a4.81 4.81 0 0 0-.88-.44l-.05-.02-.05-.02c-.39-.14-.81-.25-1.25-.32-.47-.07-1.02-.11-1.67-.11-.49 0-.92.03-1.28.09s-.71.15-1.03.27c-.29.11-.57.24-.84.41-.27.16-.53.36-.78.59-.19.18-.36.37-.5.58-.16.23-.29.5-.41.79-.14.36-.25.79-.34 1.29-.1.55-.15 1.12-.17 1.71v.03a5.675 5.675 0 0 1-1.71 3.9c-.96.93-2.23 1.53-3.64 1.61-.11.01-.21.02-.32.02H5.83c-1.28 0-2.47-.43-3.43-1.15a5.746 5.746 0 0 1-2.04-2.96l-.04-.11c-.13-.36-.22-.73-.27-1.08-.05-.38-.06-.74-.04-1.11-.02-2.71.18-5.25.6-7.61.44-2.45 1.11-4.76 2.03-6.93.96-2.27 2.17-4.35 3.63-6.23 1.46-1.89 3.17-3.59 5.12-5.09 1.87-1.44 3.87-2.69 5.99-3.75 2.1-1.05 4.37-1.93 6.79-2.64 2.34-.68 4.81-1.2 7.39-1.54C34.18.17 36.87 0 39.63 0c3.01 0 5.89.2 8.65.59 2.75.39 5.36.99 7.84 1.78 2.52.81 4.88 1.83 7.08 3.06 2.13 1.19 4.11 2.58 5.94 4.17.11.08.21.17.31.26l.03.03c1.85 1.64 3.46 3.41 4.85 5.32 1.42 1.96 2.62 4.08 3.58 6.37.95 2.25 1.66 4.62 2.12 7.1.47 2.49.7 5.09.7 7.79 0 1.69-.13 3.39-.4 5.1a31.7 31.7 0 0 1-1.17 4.94c-.52 1.62-1.17 3.19-1.95 4.71-.77 1.52-1.67 3-2.69 4.43-.04.06-.09.13-.15.2-.94 1.32-1.99 2.61-3.13 3.88a41.883 41.883 0 0 1-3.49 3.44 42.19 42.19 0 0 1-8.08 5.55c-.53.36-1.01.7-1.42 1.04-.42.34-.8.69-1.13 1.03l-.11.11c-.22.24-.42.49-.62.77-.18.26-.33.52-.45.77l-.04.08-.01.02c-.02.03-.03.07-.05.1-.12.29-.24.61-.34.97-.11.4-.22.87-.31 1.42-.1.58-.18 1.22-.23 1.9-.05.68-.08 1.44-.08 2.29 0 1.57-.64 3-1.67 4.03a5.692 5.692 0 0 1-4.03 1.67H25.77c-1.57 0-3-.64-4.03-1.67-.06-.06-.12-.12-.17-.19a5.654 5.654 0 0 1-1.5-3.84c0-.01 0-.08.01-.27.01-.07.02-.13.02-.2zm5.38-4.27c-.16 1.4-.24 2.85-.27 4.35 0 .11 0 .22-.01.33v.02c0 .09.01-.08.01.03 0 .13.04.25.11.35l.05.05c.1.1.24.16.4.16h23.44c.16 0 .3-.06.4-.16.1-.1.16-.24.16-.4 0-.91.03-1.79.1-2.65.06-.86.16-1.66.29-2.4.12-.67.27-1.33.45-1.98.17-.58.36-1.12.58-1.62.02-.05.04-.11.07-.16l.02-.03.01-.03c.25-.55.56-1.08.93-1.61.3-.42.66-.87 1.09-1.32.04-.05.09-.11.14-.16.47-.49 1-.97 1.59-1.45.58-.48 1.21-.94 1.88-1.38.07-.05.15-.09.23-.13a37.19 37.19 0 0 0 3.78-2.28 38.51 38.51 0 0 0 3.47-2.68c1.09-.95 2.11-1.96 3.07-3.02.94-1.03 1.85-2.18 2.75-3.43.03-.03.05-.07.08-.1l.01-.01.02-.03.02-.02c.88-1.23 1.65-2.5 2.31-3.79.66-1.3 1.21-2.63 1.64-3.97.44-1.37.77-2.76.99-4.16.21-1.37.32-2.81.32-4.32 0-2.42-.2-4.71-.6-6.85-.4-2.15-1.01-4.17-1.8-6.06-.8-1.89-1.8-3.68-3.02-5.35a28.388 28.388 0 0 0-4.2-4.59l-.04-.04a29.323 29.323 0 0 0-5.23-3.69c-1.9-1.06-3.96-1.95-6.16-2.65-2.18-.7-4.51-1.23-7-1.58-2.48-.35-5.12-.53-7.92-.53-2.63 0-5.1.15-7.4.46-2.34.3-4.55.76-6.64 1.37-2.08.61-4.06 1.38-5.93 2.32-1.86.93-3.57 2-5.15 3.21a23.04 23.04 0 0 0-4.2 4.17c-1.2 1.55-2.18 3.24-2.97 5.09a26.95 26.95 0 0 0-1.69 5.83c-.38 2.11-.56 4.34-.54 6.69.01.1.01.2 0 .3 0 .03 0 .07.01.11.01.05.02.09.03.12l.03.1c.03.09.06.17.09.27a.546.546 0 0 0 .54.4h22.54c.08-.01.16-.01.24-.01.16 0 .3-.06.39-.16.1-.1.16-.22.17-.36v-.02c.02-.91.1-1.74.23-2.47.14-.79.35-1.54.62-2.25.25-.65.56-1.25.93-1.79.38-.57.82-1.08 1.31-1.52.49-.44 1.01-.83 1.56-1.17.55-.34 1.14-.62 1.76-.85.61-.22 1.27-.39 1.97-.51.7-.11 1.39-.17 2.09-.17.83 0 1.65.06 2.46.19.83.13 1.58.32 2.26.57.03.01.07.03.1.04l.1.04c.62.24 1.22.56 1.78.93a8.555 8.555 0 0 1 1.68 1.42l.12.14c.48.54.9 1.12 1.26 1.75.37.65.68 1.33.92 2.05.26.76.45 1.57.57 2.42.12.85.18 1.72.18 2.63 0 .9-.05 1.78-.16 2.64-.11.85-.27 1.69-.48 2.5-.21.77-.48 1.54-.81 2.32-.33.76-.7 1.47-1.12 2.14l-.01.02a19.8 19.8 0 0 1-1.41 2c-.51.63-1.06 1.25-1.66 1.83-.58.57-1.22 1.13-1.91 1.67-.59.46-1.22.91-1.91 1.34-.06.05-.12.09-.18.13l-.14.09c-1.5 1.06-2.9 2.08-4.17 3.08-1.23.96-2.37 1.92-3.43 2.87-1.02.92-1.93 1.81-2.72 2.67-.76.83-1.42 1.62-1.97 2.39-.03.05-.07.1-.11.15l-.12.16c-.56.8-1.05 1.7-1.48 2.69-.46 1.07-.84 2.24-1.14 3.48-.27 1.15-.49 2.43-.65 3.83zm.36 43.27h23.3c.16 0 .3-.06.4-.16.1-.1.16-.24.16-.4V98.47c0-.16-.06-.3-.16-.4-.1-.1-.24-.16-.4-.16h-23.3c-.16 0-.3.06-.4.16-.1.1-.16.24-.16.4v18.71c0 .16.06.3.16.4.11.1.25.17.4.17z"/></svg>