<svg data-name="Layer 1" width="122.8" height="122.8" xmlns="http://www.w3.org/2000/svg"><path d="M5.684 29.947h25.918V25.35a29.711 25.86 0 0 1 59.411 0v4.596h26.126a5.661 4.927 0 0 1 4 1.455 5.65 4.917 0 0 1 1.661 3.492v70.144a20.465 17.812 0 0 1-20.407 17.762H20.407A20.465 17.812 0 0 1 0 105.048V34.904a5.661 4.927 0 0 1 1.672-3.492 5.661 4.927 0 0 1 4-1.455zm33.159 0h44.964V25.35a22.482 19.568 0 0 0-44.964 0zm-7.24 13.045V36.25H7.24v62.216h108.377V36.25H91.013v6.783a7.471 6.503 0 1 1-7.24-.12V36.25H38.808v6.733a7.471 6.503 0 1 1-7.24 0z" style="stroke-width:1.07562"/></svg>