<?xml version="1.0" encoding="UTF-8" standalone="no"?>
<svg
   id="Layer_1"
   data-name="Layer 1"
   viewBox="0 0 122.8 122.80001"
   version="1.1"
   sodipodi:docname="my-orders.svg"
   width="122.8"
   height="122.8"
   inkscape:version="1.1 (c68e22c387, 2021-05-23)"
   xmlns:inkscape="http://www.inkscape.org/namespaces/inkscape"
   xmlns:sodipodi="http://sodipodi.sourceforge.net/DTD/sodipodi-0.dtd"
   xmlns="http://www.w3.org/2000/svg"
   xmlns:svg="http://www.w3.org/2000/svg"
   xmlns:rdf="http://www.w3.org/1999/02/22-rdf-syntax-ns#"
   xmlns:cc="http://creativecommons.org/ns#"
   xmlns:dc="http://purl.org/dc/elements/1.1/">
  <defs
     id="defs9" />
  <sodipodi:namedview
     id="namedview7"
     pagecolor="#505050"
     bordercolor="#eeeeee"
     borderopacity="1"
     inkscape:pageshadow="0"
     inkscape:pageopacity="0"
     inkscape:pagecheckerboard="0"
     showgrid="false"
     inkscape:zoom="6.6080731"
     inkscape:cx="50.77123"
     inkscape:cy="62.953299"
     inkscape:window-width="1920"
     inkscape:window-height="992"
     inkscape:window-x="-8"
     inkscape:window-y="-8"
     inkscape:window-maximized="1"
     inkscape:current-layer="Layer_1" />
  <title
     id="title2">my-orders</title>
  <path
     d="M 15.162256,28.53861 H 36.663284 V 24.154126 C 36.934024,10.736055 47.888908,-6.3912109e-7 61.309702,-6.3912109e-7 74.730496,-6.3912109e-7 85.685381,10.736055 85.956121,24.154126 v 4.384484 h 21.671589 c 1.25343,-8.52e-4 2.45564,0.497356 3.34104,1.384574 0.87924,0.886634 1.37626,2.08236 1.38458,3.331004 v 72.609862 c -0.0276,9.34203 -7.59392,16.90839 -16.935954,16.93595 H 27.382625 c -9.34203,-0.0276 -16.908397,-7.59392 -16.935947,-16.93595 V 33.254188 c 0.0055,-2.602053 2.113525,-4.710059 4.715578,-4.715578 z m 27.500848,0 H 79.946268 V 24.154126 C 79.711343,14.029877 71.436671,5.9449962 61.309702,5.9449962 c -10.126969,0 -18.401641,8.0848808 -18.636565,18.2091298 v 4.384484 z m -6.019887,11.648481 v -5.64866 H 16.466564 v 71.325619 c 0.02201,6.02517 4.90092,10.90408 10.926094,10.92609 h 68.024718 c 6.009374,-0.0598 10.866294,-4.91672 10.926094,-10.92609 V 34.538431 H 85.956121 v 5.708859 c 6.488413,3.302174 4.046263,13.097489 -3.227051,12.976267 -7.273313,-0.121222 -9.387687,-9.992479 -2.792836,-13.076599 V 34.538431 H 42.673137 v 5.668726 c 6.542987,3.193259 4.264632,13.028446 -3.009943,13.028446 -7.274576,0 -9.55293,-9.835187 -3.009943,-13.028446 z"
     id="path4"
     sodipodi:nodetypes="cccsccccccccccccccscccccccccccccsccccscc"
     style="stroke-width:1.00331" />
  <metadata
     id="metadata826">
    <rdf:RDF>
      <cc:Work
         rdf:about="">
        <dc:title>my-orders</dc:title>
      </cc:Work>
    </rdf:RDF>
  </metadata>
</svg>
