<svg data-name="Layer 1" width="122.8" height="122.8" xmlns="http://www.w3.org/2000/svg"><path d="M15.162 28.539h21.501v-4.385C36.934 10.736 47.89 0 61.31 0c13.42 0 24.375 10.736 24.646 24.154v4.385h21.672a4.713 4.713 0 0 1 3.34 1.384 4.776 4.776 0 0 1 1.385 3.331v72.61c-.027 9.342-7.594 16.908-16.936 16.936H27.383c-9.342-.028-16.909-7.594-16.936-16.936v-72.61a4.726 4.726 0 0 1 4.715-4.715zm27.501 0h37.283v-4.385C79.711 14.03 71.436 5.945 61.31 5.945c-10.127 0-18.402 8.085-18.637 18.21v4.384zm-6.02 11.648v-5.649H16.467v71.326c.022 6.025 4.9 10.904 10.926 10.926h68.024c6.01-.06 10.867-4.917 10.926-10.926V34.538H85.956v5.71c6.489 3.301 4.046 13.097-3.227 12.976-7.273-.122-9.388-9.993-2.793-13.077v-5.609H42.673v5.67c6.543 3.192 4.265 13.028-3.01 13.028-7.274 0-9.553-9.836-3.01-13.029z" style="stroke-width:1.00331"/></svg>