<?xml version="1.0" encoding="UTF-8" standalone="no"?>
<svg
   id="Layer_1"
   data-name="Layer 1"
   viewBox="0 0 122.8 122.80001"
   version="1.1"
   sodipodi:docname="shopping-bag.svg"
   width="122.8"
   height="122.8"
   inkscape:version="1.1 (c68e22c387, 2021-05-23)"
   xmlns:inkscape="http://www.inkscape.org/namespaces/inkscape"
   xmlns:sodipodi="http://sodipodi.sourceforge.net/DTD/sodipodi-0.dtd"
   xmlns="http://www.w3.org/2000/svg"
   xmlns:svg="http://www.w3.org/2000/svg"
   xmlns:rdf="http://www.w3.org/1999/02/22-rdf-syntax-ns#"
   xmlns:cc="http://creativecommons.org/ns#"
   xmlns:dc="http://purl.org/dc/elements/1.1/">
  <defs
     id="defs9" />
  <sodipodi:namedview
     id="namedview7"
     pagecolor="#505050"
     bordercolor="#eeeeee"
     borderopacity="1"
     inkscape:pageshadow="0"
     inkscape:pageopacity="0"
     inkscape:pagecheckerboard="0"
     showgrid="false"
     inkscape:zoom="6.6080731"
     inkscape:cx="53.192511"
     inkscape:cy="65.07192"
     inkscape:window-width="1920"
     inkscape:window-height="992"
     inkscape:window-x="-8"
     inkscape:window-y="-8"
     inkscape:window-maximized="1"
     inkscape:current-layer="Layer_1" />
  <title
     id="title2">shopping-bag</title>
  <path
     d="M 5.6840101,29.946668 H 31.602174 v -4.596004 a 29.711347,25.86005 0 0 1 59.411165,0 v 4.596004 h 26.125691 a 5.6609514,4.9271575 0 0 1 4.00072,1.455067 v 0 a 5.6494219,4.9171225 0 0 1 1.66024,3.49216 v 70.144265 a 20.464742,17.812025 0 0 1 -20.4071,17.76185 H 20.407096 A 20.464742,17.812025 0 0 1 0,105.04819 V 34.90393 a 5.6609514,4.9271575 0 0 1 1.6717677,-3.49216 v 0 a 5.6609514,4.9271575 0 0 1 4.000713,-1.455067 z m 33.1586479,0 h 44.964786 v -4.596004 a 22.482394,19.568141 0 0 0 -44.964786,0 z M 31.602174,42.992095 V 36.248613 H 7.2404836 V 98.465265 H 115.61715 V 36.248613 H 91.013339 v 6.783622 a 7.4710723,6.5026437 0 1 1 -7.240484,-0.12042 V 36.248613 H 38.808069 v 6.733447 a 7.4710723,6.5026437 0 1 1 -7.240484,0 z"
     id="path4"
     style="stroke-width:1.07562" />
  <metadata
     id="metadata826">
    <rdf:RDF>
      <cc:Work
         rdf:about="">
        <dc:title>shopping-bag</dc:title>
      </cc:Work>
    </rdf:RDF>
  </metadata>
</svg>
