<svg data-name="Layer 1" width="122.8" height="122.8" xmlns="http://www.w3.org/2000/svg"><path d="M5.682 28.539h25.91v-4.385C31.918 10.736 45.119 0 61.292 0 77.463 0 90.663 10.736 90.99 24.154v4.385h26.115c1.51-.001 2.959.497 4.026 1.384 1.059.887 1.658 2.083 1.668 3.331v72.61c-.033 9.342-9.15 16.908-20.408 16.936H20.408C9.151 122.772.033 115.206 0 105.864v-72.61c.007-2.602 2.547-4.71 5.682-4.715Zm33.14 0h44.927v-4.385C83.466 14.03 73.494 5.945 61.29 5.945c-12.203 0-22.174 8.085-22.457 18.21v4.384zm-7.255 11.648v-5.649H7.254v71.326c.027 6.025 5.906 10.904 13.166 10.926h81.972c7.241-.06 13.094-4.917 13.166-10.926V34.538H90.991v5.71c7.818 3.301 4.876 13.097-3.889 12.976-8.764-.122-11.312-9.993-3.365-13.077v-5.609H38.834v5.67c7.884 3.192 5.139 13.028-3.627 13.028S23.695 43.4 31.58 40.207z" style="stroke-width:1.10137"/></svg>